<?xml version="1.0" encoding="utf-8"?>
<!-- Generator: Adobe Illustrator 16.0.0, SVG Export Plug-In . SVG Version: 6.00 Build 0)  -->
<!DOCTYPE svg PUBLIC "-//W3C//DTD SVG 1.1//EN" "http://www.w3.org/Graphics/SVG/1.1/DTD/svg11.dtd">
<svg version="1.1" id="Layer_1" xmlns="http://www.w3.org/2000/svg" xmlns:xlink="http://www.w3.org/1999/xlink" x="0px" y="0px"
	 width="500px" height="500px" viewBox="0 0 500 500" enable-background="new 0 0 500 500" xml:space="preserve">
<path id="Facebook__x28_alt_x29_" fill="#FFFFFF" d="M499.5,85.224c0-43.538-39.304-82.862-82.857-82.862H85.223
	c-43.557,0-82.862,39.324-82.862,82.862v331.414c0,43.537,39.305,82.862,82.862,82.862h165.708V311.691h-60.762v-82.856h60.762
	v-32.279c0-55.675,41.811-105.815,93.213-105.815h66.977v82.857h-66.977c-7.33,0-15.88,8.897-15.88,22.23v33.007h82.856v82.856
	h-82.856V499.5h88.379c43.554,0,82.857-39.325,82.857-82.862V85.224z"/>
</svg>
