<?xml version="1.0" encoding="utf-8"?>
<!-- Generator: Adobe Illustrator 16.0.0, SVG Export Plug-In . SVG Version: 6.00 Build 0)  -->
<!DOCTYPE svg PUBLIC "-//W3C//DTD SVG 1.1//EN" "http://www.w3.org/Graphics/SVG/1.1/DTD/svg11.dtd">
<svg version="1.1" id="Layer_1" xmlns="http://www.w3.org/2000/svg" xmlns:xlink="http://www.w3.org/1999/xlink" x="0px" y="0px"
	 width="500px" height="500px" viewBox="0 0 500 500" enable-background="new 0 0 500 500" xml:space="preserve">
<circle fill="#00305A" cx="249.083" cy="248.25" r="249.25"/>
<circle fill="none" stroke="#FFFFFF" stroke-width="7.0898" stroke-miterlimit="10" cx="249.083" cy="248.25" r="224.325"/>
<path fill="#00305A" stroke="#FFFFFF" stroke-width="13.2933" stroke-miterlimit="10" d="M350.665,352.643
	c0,11.726-9.506,21.229-21.229,21.229H175.512c-11.726,0-21.231-9.506-21.231-21.229V198.719c0-11.726,9.505-21.229,21.231-21.229
	h153.922c11.726,0,21.229,9.505,21.229,21.229L350.665,352.643L350.665,352.643z"/>
<polygon fill="#00305A" stroke="#FFFFFF" stroke-width="13.2933" stroke-linejoin="round" stroke-miterlimit="10" points="
	254.021,214.311 127.449,214.311 190.735,149.872 254.021,85.433 317.306,149.872 380.592,214.311 "/>
<rect x="228.067" y="313.5" fill="#00305A" stroke="#FFFFFF" stroke-width="11.5125" stroke-linejoin="round" stroke-miterlimit="10" width="53.664" height="60.372"/>
<rect x="181.112" y="243.014" fill="#00305A" stroke="#FFFFFF" stroke-width="13.2933" stroke-linejoin="round" stroke-miterlimit="10" width="40.248" height="40.249"/>
<rect x="281.73" y="243.014" fill="#00305A" stroke="#FFFFFF" stroke-width="13.2933" stroke-linejoin="round" stroke-miterlimit="10" width="40.248" height="40.249"/>
</svg>
