<?xml version="1.0" encoding="utf-8"?>
<!-- Generator: Adobe Illustrator 16.0.0, SVG Export Plug-In . SVG Version: 6.00 Build 0)  -->
<!DOCTYPE svg PUBLIC "-//W3C//DTD SVG 1.1//EN" "http://www.w3.org/Graphics/SVG/1.1/DTD/svg11.dtd">
<svg version="1.1" id="Layer_1" xmlns="http://www.w3.org/2000/svg" xmlns:xlink="http://www.w3.org/1999/xlink" x="0px" y="0px"
	 width="500px" height="500px" viewBox="0 0 500 500" enable-background="new 0 0 500 500" xml:space="preserve">
<circle fill="#00305A" cx="250.083" cy="249.25" r="250.25"/>
<circle fill="none" stroke="#FFFFFF" stroke-width="7.1182" stroke-miterlimit="10" cx="250.083" cy="249.25" r="225.225"/>
<path fill="#00305A" d="M384.217,355.898c0,15.18-12.307,27.484-27.483,27.484H143.715c-15.18,0-27.486-12.306-27.486-27.484
	V142.882c0-15.18,12.307-27.486,27.486-27.486h213.019c15.178,0,27.483,12.306,27.483,27.486V355.898z"/>
<path fill="none" stroke="#FFFFFF" stroke-width="16.016" stroke-miterlimit="10" d="M371.747,346.115
	c0,13.695-11.104,24.798-24.799,24.798h-192.18c-13.694,0-24.797-11.103-24.797-24.798v-192.18
	c0-13.694,11.103-24.797,24.797-24.797h192.18c13.695,0,24.799,11.103,24.799,24.797V346.115z"/>
<text transform="matrix(1 0 0 1 171.2021 287.1855)" fill="#FFFFFF" font-family="'MyriadPro-Bold'" font-size="137.4301">12</text>
<path fill="#FFFFFF" stroke="#0F347F" stroke-width="4.581" stroke-miterlimit="10" d="M226.173,142.882
	c0,11.385-9.229,20.615-20.614,20.615l0,0c-11.385,0-20.615-9.23-20.615-20.615v-34.357c0-11.385,9.229-20.615,20.615-20.615l0,0
	c11.385,0,20.614,9.229,20.614,20.615V142.882z"/>
<path fill="#FFFFFF" stroke="#0F347F" stroke-width="4.581" stroke-miterlimit="10" d="M322.375,142.882
	c0,11.385-9.23,20.615-20.615,20.615l0,0c-11.386,0-20.615-9.23-20.615-20.615v-34.357c0-11.385,9.229-20.615,20.615-20.615l0,0
	c11.385,0,20.615,9.229,20.615,20.615V142.882z"/>
</svg>
