<?xml version="1.0" encoding="utf-8"?>
<!-- Generator: Adobe Illustrator 16.0.0, SVG Export Plug-In . SVG Version: 6.00 Build 0)  -->
<!DOCTYPE svg PUBLIC "-//W3C//DTD SVG 1.1//EN" "http://www.w3.org/Graphics/SVG/1.1/DTD/svg11.dtd">
<svg version="1.1" id="Layer_1" xmlns="http://www.w3.org/2000/svg" xmlns:xlink="http://www.w3.org/1999/xlink" x="0px" y="0px"
	 width="500px" height="500px" viewBox="0 0 500 500" enable-background="new 0 0 500 500" xml:space="preserve">
<path id="Twitter_2_" fill="#FFFFFF" d="M476.25,132.377c-16.43,7.281-34.078,12.21-52.611,14.424
	c18.912-11.337,33.434-29.292,40.275-50.685c-17.699,10.498-37.3,18.124-58.17,22.227c-16.71-17.797-40.513-28.924-66.863-28.924
	c-50.583,0-91.603,41.013-91.603,91.6c0,7.182,0.806,14.173,2.372,20.88c-76.13-3.819-143.633-40.29-188.811-95.708
	c-7.886,13.525-12.403,29.259-12.403,46.054c0,31.777,16.171,59.812,40.75,76.242c-15.012-0.476-29.139-4.593-41.485-11.458
	c-0.011,0.382-0.011,0.769-0.011,1.151c0,44.384,31.576,81.405,73.48,89.823c-7.687,2.09-15.78,3.219-24.136,3.219
	c-5.899,0-11.635-0.578-17.231-1.652c11.656,36.393,45.486,62.882,85.572,63.618c-31.352,24.569-70.852,39.217-113.765,39.217
	c-7.397,0-14.686-0.438-21.854-1.282c40.537,25.986,88.688,41.157,140.42,41.157c168.491,0,260.63-139.584,260.63-260.635
	c0-3.97-0.088-7.919-0.265-11.851C448.441,166.875,463.971,150.744,476.25,132.377z"/>
</svg>
